<?xml version="1.0" encoding="UTF-8"?>
<svg version="1.1" xmlns="http://www.w3.org/2000/svg" width="128" height="128">
<path d="M0 0 C0.68100266 0.00141495 1.36200531 0.0028299 2.06364441 0.00428772 C4.22346522 0.00985327 6.38317964 0.02239922 8.54296875 0.03515625 C10.01367037 0.04017571 11.48437363 0.04473784 12.95507812 0.04882812 C16.54690915 0.05981137 20.13867855 0.07705203 23.73046875 0.09765625 C23.64619496 9.05974837 23.5513628 18.02164769 23.44294167 26.98348045 C23.39293476 31.14455183 23.34660534 35.30559726 23.30859375 39.46679688 C23.27179613 43.48044492 23.22545172 47.49387825 23.17240524 51.50734329 C23.15383179 53.04074981 23.13873479 54.57420241 23.12712479 56.10767746 C23.11031234 58.25088371 23.08129087 60.39359506 23.04931641 62.53662109 C23.03599274 63.75795746 23.02266907 64.97929382 23.00894165 66.23764038 C22.73046875 69.09765625 22.73046875 69.09765625 20.73046875 71.09765625 C17.60546875 70.72265625 17.60546875 70.72265625 14.73046875 70.09765625 C14.64410156 69.515 14.55773437 68.93234375 14.46875 68.33203125 C13.41792149 62.20059149 11.5584778 56.83691184 9.046875 51.15234375 C8.05308106 48.84626998 7.16380071 46.56862799 6.3125 44.2109375 C4.79249466 40.10570708 2.87910358 36.28608729 0.85546875 32.41015625 C-2.23770989 26.38336491 -4.7823206 20.32510359 -7.1015625 13.953125 C-8.22452116 11.20769764 -9.52203327 8.88613262 -11.14453125 6.41015625 C-11.84578125 5.31703125 -12.54703125 4.22390625 -13.26953125 3.09765625 C-12.93953125 2.43765625 -12.60953125 1.77765625 -12.26953125 1.09765625 C-8.20745336 -0.0948588 -4.2078461 -0.01731624 0 0 Z M0.60546875 5.59765625 C-0.79058594 5.736875 -0.79058594 5.736875 -2.21484375 5.87890625 C-3.23191406 5.9871875 -3.23191406 5.9871875 -4.26953125 6.09765625 C-3.72425781 7.06251953 -3.72425781 7.06251953 -3.16796875 8.046875 C0.30773366 14.29422729 3.42425842 20.623124 6.3359375 27.15234375 C7.64822006 29.92394332 9.14732978 32.47544296 10.73046875 35.09765625 C11.42305104 37.08883033 12.0879451 39.08976985 12.73046875 41.09765625 C13.68892611 43.45109611 14.70688881 45.7713382 15.73046875 48.09765625 C16.06046875 48.09765625 16.39046875 48.09765625 16.73046875 48.09765625 C16.73046875 33.90765625 16.73046875 19.71765625 16.73046875 5.09765625 C8.60495369 5.06776774 8.60495369 5.06776774 0.60546875 5.59765625 Z " fill="#010101" transform="translate(38.26953125,45.90234375)"/>
<path d="M0 0 C0.89074219 0.00902344 1.78148438 0.01804688 2.69921875 0.02734375 C4.84126935 0.05037655 6.98317672 0.08621447 9.125 0.125 C10.3105215 3.8166239 9.74192787 5.57425768 7.97680664 9.05029297 C7.65446045 9.65244629 7.33211426 10.25459961 7 10.875 C6.6795874 11.49391113 6.3591748 12.11282227 6.02905273 12.75048828 C3.61473694 17.35739084 0.99085164 21.78280054 -1.875 26.125 C-4.185 25.795 -6.495 25.465 -8.875 25.125 C-8.28825524 21.88023078 -7.31180646 20.19847318 -5.0625 17.8125 C-1.83387937 14.38468427 -0.39935588 11.5426228 2.125 7.125 C-4.475 7.125 -11.075 7.125 -17.875 7.125 C-17.875 23.295 -17.875 39.465 -17.875 56.125 C-15.895 52.495 -13.915 48.865 -11.875 45.125 C-8 41.4375 -8 41.4375 -4.875 39.125 C-3.875 42.125 -3.875 42.125 -4.4765625 43.89453125 C-4.81429687 44.56871094 -5.15203125 45.24289063 -5.5 45.9375 C-7.94304265 51.09409521 -9.78225771 56.39833319 -11.62890625 61.79296875 C-15.34361565 71.72603181 -15.34361565 71.72603181 -19.875 74.125 C-21.525 74.125 -23.175 74.125 -24.875 74.125 C-24.875 50.365 -24.875 26.605 -24.875 2.125 C-16.20637044 0.88662435 -8.57889504 -0.17184227 0 0 Z " fill="#000000" transform="translate(94.875,42.875)"/>
<path d="M0 0 C1.4540625 0.0309375 1.4540625 0.0309375 2.9375 0.0625 C3.76286345 5.78155383 4.06503701 11.2892149 4 17.0625 C3.99548828 17.83722656 3.99097656 18.61195312 3.98632812 19.41015625 C3.97469758 21.29430524 3.95676906 23.17841365 3.9375 25.0625 C-8.44331265 26.42048878 -20.6012362 27.3797599 -33.0625 27.0625 C-33.0625 24.4225 -33.0625 21.7825 -33.0625 19.0625 C-29.70297644 17.94265881 -27.39339543 18.034434 -23.86328125 18.18359375 C-22.65478516 18.23193359 -21.44628906 18.28027344 -20.20117188 18.33007812 C-18.93853516 18.38615234 -17.67589844 18.44222656 -16.375 18.5 C-15.10076172 18.55220703 -13.82652344 18.60441406 -12.51367188 18.65820312 C-9.36303961 18.78800445 -6.21271423 18.9229756 -3.0625 19.0625 C-3.21847656 18.09828125 -3.37445313 17.1340625 -3.53515625 16.140625 C-3.72980469 14.87734375 -3.92445312 13.6140625 -4.125 12.3125 C-4.32222656 11.05953125 -4.51945312 9.8065625 -4.72265625 8.515625 C-5.01364492 5.55891249 -5.11418807 3.78762884 -4.0625 1.0625 C-3.0625 0.0625 -3.0625 0.0625 0 0 Z " fill="#000000" transform="translate(57.0625,12.9375)"/>
<path d="M0 0 C2.64 0.33 5.28 0.66 8 1 C10.01362453 5.02724906 8.41158984 10.70117282 8 15 C15.92 14.67 23.84 14.34 32 14 C32 20 32 20 31 22 C30.16976318 22.03758423 30.16976318 22.03758423 29.32275391 22.07592773 C26.75670052 22.19368315 24.19085859 22.31557622 21.625 22.4375 C20.75488281 22.47681641 19.88476562 22.51613281 18.98828125 22.55664062 C18.11816406 22.59853516 17.24804688 22.64042969 16.3515625 22.68359375 C15.17327881 22.73858032 15.17327881 22.73858032 13.97119141 22.79467773 C9.63916531 23.0940396 5.32080708 23.56791929 1 24 C0.67 16.08 0.34 8.16 0 0 Z " fill="#010101" transform="translate(70,13)"/>
<path d="" fill="#FFFFFF" transform="translate(0,0)"/>
</svg>
